<?xml version="1.0" standalone="no"?>
<!DOCTYPE svg PUBLIC "-//W3C//DTD SVG 20010904//EN"
 "http://www.w3.org/TR/2001/REC-SVG-20010904/DTD/svg10.dtd">
<svg version="1.0" xmlns="http://www.w3.org/2000/svg"
 width="700.000000pt" height="700.000000pt" viewBox="0 0 700.000000 700.000000"
 preserveAspectRatio="xMidYMid meet">
<metadata>
Created by potrace 1.14, written by Peter Selinger 2001-2017
</metadata>
<g transform="translate(0.000000,700.000000) scale(0.100000,-0.100000)"
fill="#000000" stroke="none">
<path d="M4583 6909 c-355 -33 -653 -259 -842 -636 -27 -54 -55 -115 -62 -136
-25 -73 -372 -385 -704 -635 -706 -532 -1563 -968 -2370 -1207 -235 -69 -277
-86 -292 -117 -17 -34 -47 -181 -69 -343 -28 -199 -26 -556 5 -729 52 -297
146 -528 299 -736 144 -196 362 -373 585 -474 l77 -35 0 -104 c0 -58 6 -127
14 -157 19 -72 699 -1582 712 -1580 17 3 953 695 953 705 0 6 -159 237 -354
514 l-355 504 0 143 0 142 28 6 c61 13 236 36 377 50 375 38 851 43 1300 16
551 -34 1256 -127 1436 -189 133 -46 230 -62 364 -63 265 0 483 87 678 272
236 223 390 566 462 1030 22 141 31 546 16 721 -46 532 -193 1064 -427 1548
-95 197 -155 302 -270 476 -455 686 -1036 1064 -1561 1014z m337 -398 c744
-253 1440 -1420 1561 -2616 17 -171 14 -493 -5 -650 -71 -563 -302 -933 -636
-1020 -104 -27 -269 -17 -389 24 -358 121 -717 458 -1013 951 -42 69 -92 158
-112 198 l-37 73 23 29 c41 51 124 110 220 154 86 40 139 57 320 102 84 20
145 70 185 152 27 54 28 64 28 192 0 126 -2 141 -31 223 -59 165 -147 276
-262 330 -55 26 -72 29 -125 25 -39 -3 -82 -15 -114 -31 -97 -50 -186 -68
-348 -74 -82 -2 -175 -1 -205 4 l-55 8 -17 115 c-90 623 1 1223 237 1555 62
87 169 184 252 227 103 55 166 68 308 64 104 -2 133 -7 215 -35z m-1395 -1334
c0 -186 5 -342 13 -407 72 -588 259 -1168 531 -1655 136 -243 309 -486 460
-648 35 -37 57 -67 50 -67 -8 0 -70 7 -139 15 -769 89 -1627 81 -2245 -20
l-149 -25 -64 62 c-398 391 -623 897 -624 1408 -1 136 16 325 31 347 3 5 74
39 156 74 527 224 1116 562 1575 902 149 111 375 291 385 307 3 5 9 10 13 10
4 0 7 -136 7 -303z m875 -963 c0 -9 14 -56 30 -106 35 -103 34 -98 17 -98 -22
0 -186 -87 -252 -135 l-63 -44 -31 87 c-17 48 -42 125 -56 172 -14 47 -28 93
-31 103 -5 15 5 17 118 18 68 1 148 4 178 9 86 11 90 11 90 -6z m-3395 -382
c1 -238 14 -344 65 -539 89 -342 271 -680 511 -954 l58 -67 -131 -45 c-147
-51 -140 -51 -269 13 -357 181 -584 525 -645 980 -18 138 -18 363 1 525 23
196 22 192 59 199 18 4 102 28 187 55 85 27 156 50 159 50 3 1 5 -97 5 -217z
m815 -1994 c0 -127 15 -204 51 -269 14 -24 139 -206 277 -403 207 -293 251
-362 240 -372 -16 -16 -312 -233 -314 -231 -1 1 -115 254 -253 561 l-252 560
3 95 3 95 115 38 c63 20 118 37 123 37 4 1 7 -50 7 -111z"/>
</g>
</svg>
