<?xml version="1.0" encoding="UTF-8" standalone="no"?>
<!-- Generator: Adobe Illustrator 25.2.3, SVG Export Plug-In . SVG Version: 6.00 Build 0)  -->

<svg
   version="1.1"
   id="Laag_1"
   x="0px"
   y="0px"
   width="100"
   height="59"
   viewBox="0 0 264.37 150"
   xml:space="preserve"
   xmlns="http://www.w3.org/2000/svg"
   xmlns:svg="http://www.w3.org/2000/svg"><defs
   id="defs31" />
<style
   type="text/css"
   id="style18">
	.st0{fill:#191714;}
	.st1{fill:#00DB62;}
</style>
<g
   id="g26">
	<g
   id="FNV"
   transform="translate(-1)">
		<path
   class="st0"
   d="M 1,5.7 V 68.57 L 12.67,67.9 V 41.5 L 24.34,40.83 V 30.37 L 12.67,31.04 V 16.06 L 26.06,15.29 V 4.25 Z M 30.28,4.01 V 66.88 L 40.42,66.3 V 34.24 l 0.19,-0.01 12.44,31.34 7.75,-0.45 V 2.25 L 50.65,2.84 V 33.17 L 50.46,33.18 38.7,3.52 Z M 99.83,0 87.58,0.71 81.84,46.16 81.65,46.17 76.01,1.37 63.67,2.09 75.34,64.29 88.16,63.55 Z"
   id="path20"
   style="fill:#a8a8a8;fill-opacity:1" />
	</g>
	<g
   id="YOUNG---UNITED"
   transform="translate(-1)">
		<path
   class="st1"
   d="m 64.7,97.27 c 5.18,1.07 9.09,4.64 9.32,10.06 l -8.32,1.51 c -0.16,-3.11 -2.65,-3.96 -4.61,-3.85 -1.96,0.11 -3.7,1.63 -3.7,4.38 0,3.07 1.99,3.52 3.95,3.4 l 2.5,-0.14 v 7.75 l -2.5,0.14 c -2.99,0.34 -5.01,1.78 -5.01,5.44 0,3.95 1.86,6.23 5.01,6.04 2.86,-0.16 5.02,-1.45 5.02,-6.04 v -3.91 l 11.74,-0.68 v 7.71 l -3.22,0.19 c -0.92,6.18 -4.27,9.94 -10.18,11.39 v 8.84 l -8.44,0.5 v -8.82 c -6.71,-0.9 -10.92,-5.45 -10.92,-14.16 0,-4.74 2.63,-7.9 5.96,-9.95 v -0.17 c -2.54,-1.67 -4.47,-4.31 -4.47,-8.4 0,-6.46 3.97,-9.77 9.44,-11 V 87.1 l 8.44,-0.49 V 97.27 Z M 102.91,84.41 V 130 c 0,5.38 -1.34,6.89 -3.92,7.04 -2.58,0.15 -3.92,-1.31 -3.92,-6.59 V 84.85 L 83.4,85.52 v 45.6 c 0,12.38 5.64,17.82 15.6,17.24 9.85,-0.57 15.5,-6.85 15.5,-19.42 v -45.2 z m 17.22,-0.99 v 62.87 l 10.14,-0.58 v -32.06 l 0.19,-0.01 12.44,31.34 7.75,-0.45 V 81.66 l -10.14,0.58 v 30.33 l -0.19,0.01 -11.77,-29.65 z m 37.12,-2.15 v 62.87 l 11.67,-0.67 V 80.6 Z m 15.79,-0.9 V 91.4 l 8.32,-0.48 v 51.84 l 11.67,-0.67 V 90.25 l 8.23,-0.47 V 78.74 Z m 31.86,-1.84 v 62.87 l 25.16,-1.45 V 129.1 l -13.49,0.78 v -16.99 l 9.76,-0.56 v -9.7 l -9.76,0.56 v -14.3 l 13.01,-0.75 V 77.1 Z m 29.37,-1.7 v 62.87 l 15.5,-0.89 c 9.95,-0.57 15.59,-7.62 15.59,-19.71 V 93.86 c 0,-12.19 -5.64,-18.49 -15.59,-17.92 z m 19.42,18.08 v 24.57 c 0,7.1 -1.15,8.61 -3.92,8.77 l -3.83,0.22 V 87.01 l 3.83,-0.22 c 2.77,-0.16 3.92,1.21 3.92,8.12 z M 126.93,9.29 l -12.53,0.72 -4.88,29.27 -0.19,0.01 -5.07,-28.7 -12.53,0.72 11.77,44.53 V 73.5 l 11.58,-0.67 V 55.57 Z m 15.6,-1.76 c -10.43,0.6 -15.5,7.42 -15.5,19.61 V 54.4 c 0,12.19 5.07,18.33 15.5,17.73 10.33,-0.6 15.5,-7.33 15.5,-19.52 V 25.35 c 0,-12.19 -5.17,-18.42 -15.5,-17.82 z m 39.61,-1.42 v 45.6 c 0,5.38 -1.34,6.89 -3.92,7.04 -2.58,0.15 -3.92,-1.31 -3.92,-6.59 V 6.56 l -11.67,0.67 v 45.6 c 0,12.38 5.64,17.82 15.6,17.24 9.85,-0.57 15.5,-6.85 15.5,-19.42 V 5.44 Z m 17.22,-1 V 67.98 L 209.5,67.39 V 35.34 l 0.19,-0.01 12.44,31.34 7.75,-0.45 V 3.35 l -10.14,0.59 v 30.33 l -0.19,0.01 -11.77,-29.65 z m 51.37,-3.92 c -10.71,0.62 -15.59,8.77 -15.59,20.29 v 26.49 c 0,13.34 5.36,18.51 12.82,18.08 3.25,-0.19 5.84,-1.58 7.75,-3.81 l 0.19,-0.01 v 2.5 l 9.47,-0.55 V 32.22 L 251.79,33 v 8.74 l 3.44,-0.2 v 11.04 c -1.15,1.6 -2.2,2.14 -3.64,2.23 -3.16,0.18 -4.98,-1.92 -4.98,-7.58 v -26.4 c 0,-6.53 1.53,-8.73 4.88,-8.92 2.3,-0.13 3.83,1.22 4.88,6.82 l 8.99,-2.92 C 264.32,5.4 258.58,0.74 250.73,1.19 Z m -104.38,52.1 c 0,6.53 -1.05,8.32 -3.83,8.48 -2.87,0.17 -4.02,-1.5 -4.02,-8.02 V 26.48 c 0,-6.53 1.24,-8.14 4.02,-8.29 2.77,-0.16 3.83,1.31 3.83,7.84 z"
   id="path23"
   style="fill:#f9f9f9;fill-opacity:1" />
	</g>
</g>
</svg>
