<?xml version="1.0" encoding="UTF-8" standalone="no"?>
<svg
   xmlns:dc="http://purl.org/dc/elements/1.1/"
   xmlns:cc="http://creativecommons.org/ns#"
   xmlns:rdf="http://www.w3.org/1999/02/22-rdf-syntax-ns#"
   xmlns:svg="http://www.w3.org/2000/svg"
   xmlns="http://www.w3.org/2000/svg"
   xml:space="preserve"
   viewBox="0 0 500 500"
   height="16px"
   width="16px"
   y="0px"
   x="0px"
   id="Layer_1"
   version="1.1">
	<path
   style="stroke-width:1.2399652"
   id="path2"
   d="M 492.09727,37.856188 270.19637,479.74501 q -5.89388,12.08337 -19.76308,12.08337 -1.73349,0 -5.20047,-0.69041 -7.62738,-1.72601 -12.30843,-7.7677 -4.68106,-6.04168 -4.68106,-13.63615 V 270.88458 H 28.532392 q -7.627375,0 -13.695225,-4.66086 -6.0678499,-4.66087 -7.801344,-12.25534 -1.733494,-7.59448 1.3867955,-14.49979 3.1202895,-6.9053 10.0542645,-10.35733 L 462.27993,8.1674573 q 4.50709,-2.4164239 10.05427,-2.4164239 9.3621,0 15.60268,6.5588656 5.20049,4.832847 6.41455,11.910136 1.21407,7.077288 -2.25291,13.636153 z" />
</svg>