<svg id="svg8" xmlns="http://www.w3.org/2000/svg" viewBox="0 0 1500 1500">
	<path class="cls-1" d="M1042.19,969.57c-101.06,0-211.7-112.26-265.84-278.35-28.62-87.82-36.47-177.11-22.11-251.44,15.33-79.33,54.19-133.14,109.42-151.52s118.13,1.58,177.12,56.19c55.27,51.16,101.47,127.7,130.09,215.51S1207.35,737.08,1193,811.4c-15.34,79.34-54.2,133.15-109.43,151.52A130.31,130.31,0,0,1,1042.19,969.57ZM905,330.44a82.73,82.73,0,0,0-26.2,4.16c-37.9,12.61-65.29,53.29-77.12,114.53C788.83,515.39,796.14,596,822.22,676h0c46.13,141.52,141.66,244.77,220.08,244.78a82.27,82.27,0,0,0,26.16-4.16c37.9-12.61,65.29-53.28,77.13-114.53,12.8-66.26,5.49-146.81-20.59-226.83S1057.43,426,1008.16,380.42C972.67,347.58,936.94,330.44,905,330.44Z" />
	<path class="cls-1" d="M531.94,1218.4,439.4,1012.75a58.68,58.68,0,0,1-5.21-24.27V949.69h48.29v38.79a10.63,10.63,0,0,0,1,4.45l68,151.11L596.33,1111l-69-98.12a54.1,54.1,0,0,1-9.9-30.36l-1-57.42,48.28-.83,1,57.42a6,6,0,0,0,1.11,3.4L663,1121.82Z" />
	<path class="cls-1" d="M460.6,974.92l-7.48-1.66c-2.09-.46-51.79-11.86-94.05-57.11-38.22-40.94-77.82-118.37-49.4-254.79l3.49-11.08,6.51-2.78a119.69,119.69,0,0,1,16.61-5.71c43.17-11.32,257-74.5,437.21-254.75l34.14,34.15C624.52,604.3,413.12,670.38,354.1,686,322.47,866.78,428.4,914.68,457,924.18c204.17-80.31,526.69-16.36,540.5-13.56L987.88,958c-3.28-.66-330.35-65.47-520.22,14Z" />
	<path class="cls-1" d="M848.14,755.84,800.93,745.7c1.42-6.62,16.86-65.15,119.65-82.81l8.18,47.59C859.49,722.38,848.21,755.52,848.14,755.84Z" />
	<path class="cls-1" d="M832.3,648.56a233,233,0,0,1-55.95-6.7L789,595.25l-6.31,23.31,6.25-23.33c.58.16,58.44,15.13,99.28-7l23,42.46C885.49,644.61,856.68,648.56,832.3,648.56Z" />
	<path class="cls-1" d="M921.75,711.31c-20.72,0-41.07-19.27-51-49.86-11.54-35.69-2.51-67.22,21.48-75S942,599,953.58,634.68h0c11.54,35.69,2.51,67.22-21.48,75A33.46,33.46,0,0,1,921.75,711.31Z" />
	<path class="cls-1" d="M524.63,942.82C360.8,799.39,412.76,632.12,415.06,625.07L461,640l-23-7.46,23,7.37c-1.85,5.85-43.72,144.75,95.43,266.58Z" />
</svg>
