<?xml version="1.0" encoding="UTF-8" standalone="no"?>
<svg
   xmlns:dc="http://purl.org/dc/elements/1.1/"
   xmlns:cc="http://creativecommons.org/ns#"
   xmlns:rdf="http://www.w3.org/1999/02/22-rdf-syntax-ns#"
   xmlns:svg="http://www.w3.org/2000/svg"
   xmlns="http://www.w3.org/2000/svg"
   xmlns:sodipodi="http://sodipodi.sourceforge.net/DTD/sodipodi-0.dtd"
   xmlns:inkscape="http://www.inkscape.org/namespaces/inkscape"
   id="svg8"
   viewBox="0 300 1500 900"
   version="1.1"
   sodipodi:docname="Watkanikdoen - logo _Zwart wit_updated.svg"
>
  <path
     class="cls-2"
     d="m 197.75324,1096.6981 -49.06,-108.99996 a 31.17,31.17 0 0 1 -2.76,-12.86 v -20.55002 h 25.6 v 20.57002 a 5.81,5.81 0 0 0 0.5,2.36 l 36.05,80.09996 23.8,-17.53 -36.6,-51.99996 a 28.7,28.7 0 0 1 -5.25,-16.1 l -0.52,-30.44002 25.59,-0.44 0.53,30.44002 a 3.21,3.21 0 0 0 0.58,1.8 l 51,72.49996 z"
     id="path8"
  />
  <path
     class="cls-2"
     d="m 365.37324,851.48812 -25,-5.38 c 0.75,-3.51 8.94,-34.53 63.43,-43.89 l 4.34,25.23 c -36.75,6.3 -42.74,23.84 -42.77,24.04 z"
     id="path10"
  />
  <path
     class="cls-2"
     d="m 356.97324,794.61812 a 123.4,123.4 0 0 1 -29.66,-3.55 l 6.68,-24.71 -3.34,12.35 3.31,-12.36 c 0.31,0.08 31,8 52.63,-3.72 l 12.21,22.5 c -13.64,7.39 -28.91,9.49 -41.83,9.49 z"
     id="path12"
  />
  <path
     class="cls-2"
     d="m 404.39324,827.87812 c -11,0 -21.78,-10.21 -27,-26.43 -6.12,-18.92 -1.33,-35.63 11.39,-39.75 12.72,-4.12 26.36,6.64 32.47,25.59 v 0 c 6.12,18.92 1.33,35.64 -11.38,39.75 a 17.73,17.73 0 0 1 -5.48,0.84 z"
     id="path14"
  />
  <path
     class="cls-2"
     d="m 193.87324,950.60812 c -86.85,-76 -59.3,-164.71 -58.09,-168.44 l 24.35,7.91 -12.17,-3.95 12.19,3.9 c -1,3.11 -23.18,76.74 50.59,141.32 z"
     id="path16"
  />
  <path
     class="cls-2"
     d="m 468.48324,965.19812 c -51.77,0 -109.34,-60.23 -137.91,-148.58 -32.26,-99.74 -13.57,-192.08 42.53,-210.23 l 7.88,24.36 c -41,13.27 -53,94.78 -26.05,178 26.95,83.22 84.32,142.29 125.32,129.02 11.68,-3.78 21.21,-13.18 28.33,-28 l 23.06,11.11 c -10.13,21 -25.18,35.27 -43.52,41.2 a 63.59,63.59 0 0 1 -19.64,3.12 z"
     id="path18"
  />
  <path
     class="cls-2"
     d="m 1360.3565,884.97902 c -16.7067,-22.3198 -36.0171,-48.797 -52.6379,-70.6223 0.9674,5.0716 4.295,18.97 5.183,25.2992 l 8.6696,46.7657 -24.8218,0.175 -18.6419,-103.3752 28.34,-2.1067 c 28.8536,37.4667 31.9169,41.3522 49.3045,63.6599 -5.2115,-24.0636 -10.3264,-46.9892 -13.6679,-66.4148 l 21.6575,-1.6457 20.3782,107.9171 z"
     id="path20"
  />
  <path
     class="cls-2"
     d="m 1404.8833,884.32722 -20.4069,-109.6447 23.3978,-1.778 18.8781,90.1116 33.9847,-0.8304 4.0571,21.2646 z"
     id="path22"
  />
  <rect
     class="cls-2"
     x="1115.42"
     y="876.11835"
     width="22.721508"
     height="21.818632"
     id="rect24"
     transform="matrix(1,0,0.15738222,0.98753776,0,0)"
	/>
  <path
     class="cls-2"
     d="m 599.61324,895.46812 -37.85661,1.2008 -24.40339,-123.5508 36.23,-6.9"
     id="path26"
  />
  <path
     class="cls-2"
     d="m 159.93324,967.61812 -4,-0.87 c -1.11,-0.25 -27.45,-6.29 -49.85,-30.28 -20.270003,-21.7 -41.260003,-62.75 -26.190003,-135.07 l 1.85,-5.87 3.51,-1.47 a 63.49,63.49 0 0 1 8.800003,-3 c 22.89,-6 136.22,-39.49 231.77,-135 l 18.1,18.1 c -97.1,97 -209.16,132.03 -240.45,140.32 -16.770003,95.81 39.39,121.21 54.54,126.25 108.24,-42.58 279.24,-8.67 286.52,-7.19 l -5.09,25.09 c -1.74,-0.35 -175.12,-34.71 -275.77,7.43 z"
     id="path28"
  />
  <path
     class="cls-2"
     d="m 544.87324,718.28812 -0.7,-115.22 34.56,-13 -10,159.34 -38,7.24 -33.75,-78.58 -0.33,0.06 0.26,88 -36.87,7 -59.59,-116.1 36.42,-13.68 32.94,93.31 -1,-105.32 34.82,-13.05 z"
     id="path30"
  />
  <path
     class="cls-2"
     d="m 670.67324,729.99812 -11,-29.53 -35.42,6.74 0.18,31.6 -38.66,7.36 8.7,-162 45.46,-17.07 69.6,155.5 z m -47.09,-59.45 22.67,-4.32 -22.8,-61.67 -0.83,0.16 z"
     id="path32"
  />
  <path
     class="cls-2"
     d="m 738.63324,568.54812 27,143.35 -35.93,6.84 -26.77,-140.82 -32.68,8.87 -5.52,-29 99.35,-37.31 8.39,38.81 z"
     id="path34"
  />
  <path
     class="cls-2"
     d="m 887.49323,688.69812 -42.15,-78.11 a 131.2,131.2 0 0 1 -5.73,-13 l -0.42,0.08 18.42,96.7 -35.75999,6.81 -35.98,-188.89 34.58,-13 17.51999,92 0.41,-0.08 q 0.17,-7.71 1,-14.4 l 8.32,-87.7 44.42,-16.69 -17.76,112.18 56.51,95.84 z"
     id="path36"
  />
  <path
     class="cls-2"
     d="m 1110.2532,391.15812 32.72,-13.28 48.18,253 -31.37,6 -75.53,-124.35 -0.33,0.06 26,133.75 -33.11,6.31 -44.37,-233 34,-12.76 72,128 z"
     id="path38"
  />
  <path
     class="cls-2"
     d="m 642.83324,845.28812 -0.41,0.08 9.44,49.59 -36.94,0.63 -24.62,-129.3 35.76,-6.81 15.3,80.32 0.41,-0.08 a 116.34,116.34 0 0 1 1.32,-12.43 l 10.62,-73.06 42.39,-8.07 -18.35,87 43.5,60.56 -43.25,0.75 z"
     id="path40"
  />
  <path
     class="cls-2"
     d="m 855.96323,798.78812 q 4.72,24.86 0.79,45.39 -3.93,20.53 -16,33.59 c -8.06999,8.71 -11.82999,12 -24.07999,14.32 l -61,1.05 -26.81,-152.73 49.17,-9.36 q 62.74999,-11.95 77.92999,67.74 z m -36.15999,8.76 a 77.83,77.83 0 0 0 -8.09,-23.36 q -5.55,-10 -13.21,-14.61 a 22.8,22.8 0 0 0 -16.51,-2.91 l -9.19,1.75 18.35,96.35 10,-1.91 q 12.83,-2.45 17.91,-17.44 5.08,-14.99 0.74,-37.87 z"
     id="path42"
  />
  <path
     class="cls-2"
     d="m 987.60323,784.63812 q 5.16997,27.17 1.55997,50.09 -3.60997,22.92 -15.16997,37.44 -11.57,14.54 -28.69,17.79 -16.72,3.18 -32.62,-5.72 -15.9,-8.9 -27.43,-28.27 -11.63,-19.38 -16.63,-45.68 -5.25,-27.56 -1.75,-51 3.5,-23.44 15.13,-38.15 a 47.84,47.84 0 0 1 29.33,-18 46.42,46.42 0 0 1 32.7,5.7 q 15.65,9 27,28.88 11.35,19.88 16.57,46.92 z m -37.63,8.73 q -4.23,-22.27 -12.31,-34 -8.08,-11.73 -17.84,-9.9 -10.68,2 -14.29,15.5 -3.61,13.5 0.68,36 4.18,22 12.46,33.22 8.28,11.22 18.45,9.27 6.2,-1.18 10.12,-7.67 3.92,-6.49 4.68,-17.32 a 98.33,98.33 0 0 0 -1.95,-25.1 z"
     id="path44"
  />
  <path
     class="cls-2"
     d="m 1024.8149,889.89072 -37.56167,-198.6926 73.91997,-14.07 9.1,47.73 -38.17,7.27 5.63,29.52 35.84,-6.82 9.09,47.73 -35.84,6.83 5.67,29.8 40.9,-7.79 11.7333,57.317 z"
     id="path46"
  />
  <path
     class="cls-2"
     d="m 1208.9699,887.19502 -65.3167,-106.9969 c -4.92,-7.8066 -9.0733,-14.9133 -12.46,-21.32 l -0.33,0.06 c 2.4133,10.86 4.91,23.0867 7.49,36.68 l 17.6153,92.3527 -33.9849,0.4975 -41.2204,-215.0802 33.78,-6.43 59.51,94 c 0.7533,1.2534 1.6633,2.7367 2.73,4.45 1.0667,1.7134 2.1467,3.48 3.24,5.3 1.0867,1.82 2.1267,3.5967 3.12,5.33 0.9933,1.7334 1.79,3.29 2.39,4.67 l 0.33,-0.06 c -1.2,-4.4733 -2.8667,-12.27 -5,-23.39 l -18.92,-99.34 33.11,-6.3 44.64,234.37 z"
     id="path48"
  />
  <path
     class="cls-2"
     d="m 985.57323,437.28812 -43.9,16.49 -0.55,224.74 38.66,-7.36 -1.8,-40.09 35.42997,-6.78 12.64,38 38.83,-7.39 z m -10.74,149.5 -2.23,-95.82 29.88997,91.18 z"
     id="path50"
  />
</svg>