<?xml version="1.0" encoding="UTF-8" standalone="no"?>
<svg
   xmlns:dc="http://purl.org/dc/elements/1.1/"
   xmlns:cc="http://creativecommons.org/ns#"
   xmlns:rdf="http://www.w3.org/1999/02/22-rdf-syntax-ns#"
   xmlns:svg="http://www.w3.org/2000/svg"
   xmlns="http://www.w3.org/2000/svg"
   id="svg8"
   version="1.1"
   viewBox="0 0 138.47847 158.23962"
   height="158.23962mm"
   width="138.47847mm">
  <g
     transform="translate(-35.158133,-53.883878)"
     id="layer2">
    <path
       d="m 71.52528,162.74723 c -2.384368,4.95253 -1.981841,8.43571 -0.369645,11.25971 L 91.324059,208.434 c 1.370164,2.52772 2.552994,1.74218 2.552994,1.74218 0.820354,-0.31802 2.012883,-2.43189 2.012883,-2.43189 l 8.522634,-15.10717 c 0,0 0.60012,-1.23872 0.4999,-2.1157 0,0 -0.0385,-0.53401 -0.60555,-1.63495 L 92.233797,168.88919 c 0,0 -0.988727,-1.74154 -0.499098,-2.57624 0.341379,-0.58197 0.628365,-0.84439 0.628365,-0.84439 0,0 0.257492,-0.38372 0.859131,-0.45271 76.083295,-9.24459 73.037785,-6.93457 74.860425,-8.70161 2.09589,-2.03196 2.26317,-3.40297 3.08383,-5.38317 1.58663,-5.4558 -0.37369,-11.09197 -0.53904,-13.00459 -1.87683,-8.90582 -5.84352,-17.0466 -9.26877,-25.3961 -4.84063,-11.3637 -13.99165,-26.182949 -17.49366,-31.636945 -5.46312,-8.474776 -11.42142,-15.369441 -17.42999,-21.040701 -4.19484,-3.386168 -7.70463,-5.113464 -9.85872,-3.557918 -3.36031,2.42158 -2.17202,8.854323 -1.3352,14.503578 0.40383,2.726191 1.2974,5.157428 1.68205,6.828992 1.1637,3.748474 2.32727,7.47767 3.4857,10.356559 1.06098,2.780026 2.15835,5.502482 3.30911,8.140455 1.62541,3.69963 3.28374,7.33098 5.02656,10.78697 2.18519,4.05547 4.38573,8.38219 5.994,11.26553 1.09968,1.91831 1.67502,3.07304 2.83386,4.85963 l 3.2639,5.26997 c 5.45057,8.17547 8.5683,16.7051 15.94367,21.58307 3.19397,2.11245 5.97258,2.63386 7.4947,1.19314 1.90365,-1.80184 1.53036,-6.02749 0.33059,-8.32217"
       style="fill:none;stroke-width:3.70416665;stroke-linecap:round;stroke-linejoin:miter;stroke-miterlimit:4;stroke-dasharray:none;stroke-opacity:1" />
    <path
       d="m 129.65666,93.384357 c 7.84494,1.501261 11.51166,6.883403 13.98444,11.247493 2.76022,5.43682 4.86487,12.62243 3.50323,20.08862"
       style="display:inline;fill:none;stroke-width:3.70416665;stroke-linecap:round;stroke-linejoin:miter;stroke-miterlimit:4;stroke-dasharray:none;stroke-opacity:1" />
    <path
       d="m 63.684358,159.66923 c -0.971936,3.43013 -1.862092,5.87928 -3.615002,8.17393 -1.762412,1.91272 -4.120325,2.42062 -8.093786,2.75402 l -4.390416,0.5035 c -1.129516,0.12376 -1.969327,-0.52216 -2.010698,-0.80349 l -1.153525,-2.37887 -2.434456,-5.02047 -4.59236,-9.4706 c -0.381744,-0.84644 -0.528685,-1.50376 -0.299742,-2.9763 0.04231,-0.52398 0.395306,-0.97354 1.802234,-2.49768 0,0 68.849483,-84.71285 69.605323,-84.523417 0.70299,-0.117166 0.76111,9.551155 0.84739,11.314559 0.0529,1.08096 -42.958657,47.599828 -42.958657,47.599828"
       style="fill:none;stroke-width:3.70416665;stroke-linecap:round;stroke-linejoin:miter;stroke-miterlimit:4;stroke-dasharray:none;stroke-opacity:1" />
  </g>
</svg>
